<svg xmlns="http://www.w3.org/2000/svg" width="800" height="800" class="icon" viewBox="0 0 1024 1024"><path fill="#eaca44" d="M224 320a320 288 90 1 0 576 0 320 288 90 1 0-576 0"/><path fill="#eaeaea" d="M512 64c123.488 0 224 114.848 224 256S635.488 576 512 576 288 461.152 288 320 388.512 64 512 64m0-64C352.928 0 224 143.296 224 320s128.928 320 288 320 288-143.296 288-320S671.072 0 512 0m288 640H224c0 125.344 80.224 231.68 192 271.264V992a32 32 0 0 0 32 32h128a32 32 0 0 0 32-32v-80.736C719.776 871.68 800 765.344 800 640"/><path fill="#434854" d="M832 608a32 32 0 0 1-32 32H224a32 32 0 1 1 0-64h576a32 32 0 0 1 32 32"/><path d="M512 864a351.3 351.3 0 0 1-271.264-127.68A288.7 288.7 0 0 0 416 911.264V992a32 32 0 0 0 32 32h128a32 32 0 0 0 32-32v-80.736A288.7 288.7 0 0 0 783.264 736.32 351.3 351.3 0 0 1 512 864m286.016-192C799.2 661.472 800 650.848 800 640H224c0 10.848.8 21.472 1.984 32z"/></svg>