<svg xmlns="http://www.w3.org/2000/svg" xml:space="preserve" width="800" height="800" viewBox="0 0 512 512"><path d="M511.342 227.699a20.7 20.7 0 0 1-5.115 9.645l-6.202 6.62-220.396 235.17-3.401 3.652-.014.014-4.502 4.795a20.88 20.88 0 0 1-15.262 6.606c-.153 0-.307-.014-.446-.014-.153 0-.307.014-.46.014a20.83 20.83 0 0 1-15.248-6.606l-2.342-2.495-4.363-4.655L11.983 243.964l-6.202-6.62a20.7 20.7 0 0 1-5.115-9.645 20.9 20.9 0 0 1-.418-8.446l2.676-17.102 14.76-94.288 1.84-11.763c.028-.139.07-.265.098-.404.836-6.091 4.335-11.763 10.035-15.136l12-7.122 75.138-44.531 13.603-8.07a20.75 20.75 0 0 1 8.098-2.76c4.85-.794 9.993.098 14.481 2.927l5.993 3.777 76.295 48.085 20.739 13.074 21.074-13.283 77.842-49.075.098-.056a21 21 0 0 1 4.237-2.021c6.481-4.376 15.164-4.934 22.342-.669l14.955 8.864 73.716 43.695 12.084 7.164c5.701 3.373 9.185 9.046 10.035 15.136.014.139.056.265.084.404l1.826 11.694 14.774 94.358 2.676 17.102c.459 2.899.278 5.77-.405 8.446" style="fill:#ffdce1"/><path d="M511.342 227.699a20.7 20.7 0 0 1-5.115 9.645l-6.202 6.62-220.396 235.17-3.401 3.652-.014.014-4.502 4.795a20.88 20.88 0 0 1-15.262 6.606c-.153 0-.307-.014-.446-.014V85.939l21.074-13.283 77.842-49.075.098-.056a21 21 0 0 1 4.237-2.021c6.481-4.376 15.164-4.934 22.342-.669l14.955 8.864 73.716 43.695 12.084 7.164c5.701 3.373 9.185 9.046 10.035 15.136.014.139.056.265.084.404l1.826 11.694 14.774 94.358 2.676 17.102c.459 2.9.278 5.771-.405 8.447" style="fill:#f4ced2"/><path d="m511.746 219.253-2.676-17.102H381.233l113.062-94.358L492.47 96.1c-.028-.139-.07-.265-.084-.404-.85-6.091-4.335-11.763-10.035-15.136l-12.084-7.164-109.62 91.487L396.55 29.702l-14.955-8.864c-7.178-4.265-15.861-3.707-22.342.669a21 21 0 0 0-4.237 2.021l-.098.056-47.416 178.569h-29.715l-.711-129.495-21.074 13.283-20.739-13.074.711 129.286h-29.896L158.97 24.781l-5.993-3.777c-4.488-2.829-9.631-3.721-14.481-2.927a20.7 20.7 0 0 0-8.098 2.76l-13.603 8.07 36.266 136.533L41.656 73.437l-12 7.122c-5.701 3.373-9.199 9.046-10.035 15.136-.028.139-.07.265-.098.404l-1.84 11.763L131.86 202.15H2.924L.248 219.252a20.9 20.9 0 0 0 .418 8.446 20.7 20.7 0 0 0 5.115 9.645l6.202 6.62h161.928l61.242 230.585-1.561 5.896 4.363 4.655 2.342 2.495a20.83 20.83 0 0 0 15.248 6.606c.153 0 .307-.014.46-.014.139 0 .293.014.446.014a20.88 20.88 0 0 0 15.262-6.606l4.502-4.795.014-.014 3.401-3.652-1.213-4.599 61.228-230.571h160.381l6.202-6.62a20.7 20.7 0 0 0 5.115-9.645c.682-2.675.863-5.546.403-8.445M256.784 393.111l-.781-2.941-38.83-146.206h79.222z" style="fill:#f5888e"/><path d="M511.342 227.699a20.7 20.7 0 0 1-5.115 9.645l-6.202 6.62H339.643l-61.228 230.571 1.213 4.599-3.401 3.652-.014.014-4.502 4.795a20.88 20.88 0 0 1-15.262 6.606c-.153 0-.307-.014-.446-.014V390.17l.781 2.941 39.611-149.147h-40.391V85.939l21.074-13.283.711 129.495h29.715L354.92 23.582l.098-.056a21 21 0 0 1 4.237-2.021c6.481-4.376 15.164-4.934 22.342-.669l14.955 8.864-35.903 135.181 109.62-91.487 12.084 7.164c5.701 3.373 9.185 9.046 10.035 15.136.014.139.056.265.084.404l1.826 11.694-113.062 94.358H509.07l2.676 17.102c.46 2.9.279 5.771-.404 8.447" style="fill:#f76976"/></svg>