<svg xmlns="http://www.w3.org/2000/svg" xml:space="preserve" width="800" height="800" viewBox="0 0 511.659 511.659"><path d="M350.723 373.365c1.374 5.137-1.671 10.431-6.809 11.805l-242.008 64.85c-5.137 1.374-10.415-1.687-11.789-6.824L.33 108.121c-1.374-5.138 1.671-10.416 6.808-11.79L249.14 31.482c5.137-1.374 10.431 1.671 11.805 6.808z" style="fill:#aab2bc"/><path d="M87.759 126.374c-1.421-5.31-6.886-8.464-12.195-7.042l-9.635 2.577-2.576-9.635c-1.421-5.309-6.886-8.463-12.211-7.042-5.309 1.421-8.463 6.886-7.042 12.211l2.577 9.618-9.635 2.593c-5.309 1.421-8.463 6.886-7.042 12.195 1.421 5.324 6.886 8.479 12.211 7.058l9.619-2.592 2.592 9.634c1.421 5.309 6.886 8.479 12.195 7.042 5.325-1.421 8.479-6.887 7.058-12.195l-2.576-9.635 9.619-2.576c5.307-1.421 8.477-6.886 7.041-12.211" style="fill:#434a54"/><path d="M355.204 408.296a9.63 9.63 0 0 1-9.634 9.635H95.035a9.63 9.63 0 0 1-9.634-9.635V61.4c0-5.309 4.31-9.634 9.634-9.634H345.57c5.324 0 9.634 4.325 9.634 9.634z" style="fill:#ccd1d9"/><path d="M168.004 96.05c-5.715-15.693-23.781-22.174-27.357-23.313l-3.029-.968-3.045.968c-3.56 1.14-21.626 7.62-27.342 23.329-4.778 12.71-.125 26.327 11.087 32.401l.406.218c2.249 1.093 4.716 1.64 7.37 1.64 4.451 0 8.573-1.593 11.461-2.889 2.92 1.312 7.058 2.904 11.524 2.904 2.67 0 5.168-.562 7.433-1.655l.406-.218c11.211-6.075 15.864-19.691 11.086-32.417" style="fill:#434a54"/><path d="M147.58 131.512v-7.371h-19.925v7.371c-5.512 0-9.978 4.45-9.978 9.962 0 5.496 4.466 9.962 9.978 9.962h19.925c5.512 0 9.962-4.466 9.962-9.962a9.95 9.95 0 0 0-9.962-9.962" style="fill:#434a54"/><path d="M350.504 443.195c-1.39 5.138-6.668 8.198-11.805 6.824L96.706 385.17c-5.153-1.374-8.198-6.668-6.824-11.805L179.668 38.29c1.374-5.137 6.667-8.182 11.805-6.808l241.993 64.849c5.137 1.374 8.197 6.652 6.808 11.79z" style="fill:#d7dadd"/><path d="m227.341 61.728-41.395 30.184 20.752 46.83 41.395-30.184z" style="fill:#ed5564"/><path d="M336.919 475.69c-2.671 4.606-8.558 6.184-13.163 3.528L106.793 353.956c-4.622-2.671-6.199-8.558-3.529-13.164L276.707 40.367c2.654-4.606 8.558-6.184 13.164-3.529l216.971 125.279c4.605 2.655 6.184 8.558 3.529 13.164z" style="fill:#e6e9ed"/><path d="m287.451 126.171 3.123.671c1.217.265 5.59 1.125 11.242 1.125 9.807 0 18.145-2.639 24.109-7.651 10.494-8.62 13.273-22.735 6.605-33.604l-.25-.391c-4.419-6.527-12.008-7.823-16.942-8.338-2.842-3.919-7.933-9.978-15.786-10.556l-.453-.031h-.672c-12.602 0-22.938 9.259-25.141 22.548-2.881 16.442 9.51 31.089 12.024 33.869zM341.775 401.472l-.25-.39c-4.435-6.527-12.008-7.823-16.942-8.339-2.842-3.919-7.933-9.993-15.802-10.556l-.453-.031h-.656c-12.617 0-22.938 9.26-25.141 22.548-2.904 16.443 9.51 31.09 12.024 33.869l2.14 2.358 3.123.671c1.201.266 5.59 1.124 11.242 1.124 9.807 0 18.129-2.639 24.094-7.651 10.494-8.619 13.289-22.751 6.621-33.603M356.937 236.273l-.234-.391c-6.605-9.729-20.893-12.352-29.621-13.039a79 79 0 0 0-4.467-5.856c-7.011-8.244-14.271-12.71-21.564-13.241l-.452-.016c-.344-.016-.688-.016-1.03-.016-19.551 0-35.595 14.6-39.046 35.493-4.934 27.841 18.074 54.114 20.714 57.035l2.154 2.357 3.107.672c1.483.327 9.4 1.936 19.534 1.936 16.583 0 30.496-4.325 40.225-12.508 8.245-6.745 13.601-15.428 15.521-25.054 1.89-9.493.171-19.221-4.841-27.372" style="fill:#ed5564"/></svg>