<svg xmlns="http://www.w3.org/2000/svg" xmlns:xlink="http://www.w3.org/1999/xlink" width="800" height="800" viewBox="0 0 73 73"><title>web-components/slots</title><defs><rect id="a" width="69" height="69" x="0" y="0" rx="14"/></defs><g fill="none" fill-rule="evenodd" transform="translate(2 2)"><rect width="71" height="71" x="-1" y="-1" fill="#ed6d7d" fill-rule="nonzero" stroke="#ae2318" stroke-width="2" rx="14"/><mask id="b" fill="#fff"><use xlink:href="#a"/></mask><rect width="71" height="71" x="-1" y="-1" stroke="#ae2318" stroke-width="2" rx="14"/><g mask="url(#b)"><g transform="translate(-2 -4)"><path fill="#fdf16c" fill-rule="nonzero" d="M64.303 21.387H8.697a2.14 2.14 0 0 1-2.138-2.139C6.559 8.635 15.333 0 26.117 0h20.766C57.667 0 66.44 8.635 66.44 19.248a2.14 2.14 0 0 1-2.138 2.139"/><path fill="#fae168" fill-rule="nonzero" d="M46.883 0H36.5v21.387h27.803a2.14 2.14 0 0 0 2.138-2.139C66.441 8.635 57.667 0 46.883 0"/><circle cx="32.223" cy="10.693" r="2.139" fill="#ed6d7d" fill-rule="nonzero"/><circle cx="23.668" cy="10.693" r="2.139" fill="#ed6d7d" fill-rule="nonzero"/><circle cx="40.777" cy="10.693" r="2.139" fill="#d44854" fill-rule="nonzero"/><circle cx="49.332" cy="10.693" r="2.139" fill="#d44854" fill-rule="nonzero"/><path fill="#ed6d7d" fill-rule="nonzero" d="M65.158 73H7.842C3.518 73 0 69.482 0 65.158V24.951c0-4.324 3.518-7.842 7.842-7.842h57.316c4.324 0 7.842 3.518 7.842 7.842v40.207C73 69.482 69.482 73 65.158 73"/><path fill="#d44854" fill-rule="nonzero" d="M65.158 17.11H36.5V73h28.658C69.482 73 73 69.482 73 65.158V24.951c0-4.324-3.518-7.842-7.842-7.842"/><path fill="#fff" fill-rule="nonzero" d="M10.836 27.952h51.328v25.665H10.836z"/><path fill="#e4dfd9" fill-rule="nonzero" d="M36.5 27.952h25.664v25.665H36.5z"/><path fill="#d44854" fill-rule="nonzero" d="M27.945 27.139c-1.18 0-2.138.872-2.138 1.95V52.48c0 1.076.957 1.95 2.138 1.95s2.139-.873 2.139-1.95V29.088c0-1.077-.958-1.95-2.139-1.95"/><path fill="#ae2318" fill-rule="nonzero" d="M45.055 27.139c-1.181 0-2.139.872-2.139 1.95V52.48c0 1.076.958 1.95 2.139 1.95s2.138-.873 2.138-1.95V29.088c0-1.077-.957-1.95-2.138-1.95"/><path fill="#d44854" fill-rule="nonzero" d="M62.164 55.755H10.836a2.14 2.14 0 0 1-2.139-2.138V27.952c0-1.18.958-2.138 2.139-2.138h51.328c1.181 0 2.139.957 2.139 2.138v25.665a2.14 2.14 0 0 1-2.139 2.138m-49.19-4.277h47.051V30.09h-47.05z"/><path d="M36.5 30.091h23.525v21.387H36.5zM12.975 30.091H36.5v21.387H12.975z"/><path fill="#ae2318" fill-rule="nonzero" d="M62.164 25.814H36.5v4.277h23.525v21.387H36.5v4.277h25.664a2.14 2.14 0 0 0 2.139-2.138V27.952a2.14 2.14 0 0 0-2.139-2.138"/><path fill="#5a5555" fill-rule="nonzero" d="M22.145 37.136a.57.57 0 0 0-.518-.332h-4.911a.57.57 0 0 0-.57.57v1.238c0 .315.255.57.57.57h2.66l-2.574 4.81a.57.57 0 0 0 .503.84h1.697a.57.57 0 0 0 .506-.309l3.065-5.929a.57.57 0 0 0 .011-.5zM39.254 37.136a.57.57 0 0 0-.518-.332h-4.911a.57.57 0 0 0-.57.57v1.238c0 .315.255.57.57.57h2.66l-2.574 4.81a.57.57 0 0 0 .503.84h1.697a.57.57 0 0 0 .506-.309l3.065-5.929a.57.57 0 0 0 .011-.5z"/><path fill="#453f3f" fill-rule="nonzero" d="m39.693 38.095-.439-.959a.57.57 0 0 0-.518-.332H36.5v7.872a.6.6 0 0 0 .117-.153l3.065-5.929a.57.57 0 0 0 .011-.5M56.803 38.095l-.44-.959a.57.57 0 0 0-.518-.332h-4.91a.57.57 0 0 0-.571.57v1.238c0 .315.255.57.57.57h2.661l-2.575 4.81a.57.57 0 0 0 .503.84h1.697a.57.57 0 0 0 .507-.309l3.064-5.929a.57.57 0 0 0 .012-.5"/><path fill="#d44854" fill-rule="nonzero" d="M62.164 64.588H10.836a2.139 2.139 0 0 1 0-4.277h51.328a2.139 2.139 0 0 1 0 4.277"/><path fill="#ae2318" fill-rule="nonzero" d="M62.164 60.31H36.5v4.278h25.664a2.139 2.139 0 0 0 0-4.277"/></g></g></g></svg>