<?xml version="1.0" encoding="utf-8"?>
<!-- Uploaded to: SVG Repo, www.svgrepo.com, Generator: SVG Repo Mixer Tools -->
<svg width="800px" height="800px" viewBox="0 0 1024 1024" class="icon"  version="1.1" xmlns="http://www.w3.org/2000/svg"><path d="M224 320a320 288 90 1 0 576 0 320 288 90 1 0-576 0Z" fill="#EACA44" /><path d="M512 64c123.488 0 224 114.848 224 256s-100.512 256-224 256-224-114.848-224-256 100.512-256 224-256m0-64c-159.072 0-288 143.296-288 320s128.928 320 288 320 288-143.296 288-320-128.928-320-288-320zM800 640H224c0 125.344 80.224 231.68 192 271.264V992a32 32 0 0 0 32 32h128a32 32 0 0 0 32-32v-80.736c111.776-39.584 192-145.92 192-271.264z" fill="#EAEAEA" /><path d="M832 608a32 32 0 0 1-32 32H224a32 32 0 1 1 0-64h576a32 32 0 0 1 32 32z" fill="#434854" /><path d="M512 864a351.296 351.296 0 0 1-271.264-127.68A288.704 288.704 0 0 0 416 911.264V992a32 32 0 0 0 32 32h128a32 32 0 0 0 32-32v-80.736a288.704 288.704 0 0 0 175.264-174.944A351.296 351.296 0 0 1 512 864zM798.016 672c1.184-10.528 1.984-21.152 1.984-32H224c0 10.848 0.8 21.472 1.984 32h572.032z" fill="" /></svg>